HIERARCHY
ROOT hip
{
  OFFSET 0.00112043 5.09927 -9.65472
  CHANNELS 6 Xposition Yposition Zposition Zrotation Xrotation Yrotation
  JOINT abdomen
  {
    OFFSET 0 -1.186 -1.5018
    CHANNELS 3 Zrotation Xrotation Yrotation
    JOINT abdomen2
    {
      OFFSET 0 9.964 0.2134
      CHANNELS 3 Zrotation Xrotation Yrotation
      JOINT chest
      {
        OFFSET 0 13.134 -3.2573
        CHANNELS 3 Zrotation Xrotation Yrotation
        JOINT neck
        {
          OFFSET 0 20.686 -1.6905
          CHANNELS 3 Zrotation Xrotation Yrotation
          JOINT head
          {
            OFFSET 0 7.238 -0.1237
            CHANNELS 3 Zrotation Xrotation Yrotation
            End Site
            {
              OFFSET 0 0 0
            }
          }
        }
        JOINT lCollar
        {
          OFFSET 1.7069 20.075 5.0056
          CHANNELS 3 Zrotation Xrotation Yrotation
          JOINT lShldr
          {
            OFFSET 13.6458 -0.047 -4.849
            CHANNELS 3 Zrotation Xrotation Yrotation
            JOINT lForeArm
            {
              OFFSET 28.3255 -0.9759 2.2888
              CHANNELS 3 Zrotation Xrotation Yrotation
              JOINT lHand
              {
                OFFSET 22.1583 -0.53 10.8316
                CHANNELS 3 Zrotation Xrotation Yrotation
                JOINT lThumb1
                {
                  OFFSET 0.786 0.112 2.5817
                  CHANNELS 3 Zrotation Xrotation Yrotation
                  JOINT lThumb2
                  {
                    OFFSET 0.3601 -0.878 4.2331
                    CHANNELS 3 Zrotation Xrotation Yrotation
                    JOINT lThumb2_End
                    {
                      OFFSET 1.8127 -1.216 2.2227
                      CHANNELS 3 Zrotation Xrotation Yrotation
                      End Site
                      {
                        OFFSET 0.0181 -0.0122 0.0222
                      }
                    }
                  }
                }
                JOINT lCarpal1
                {
                  OFFSET 0.9571 1.114 1.7695
                  CHANNELS 3 Zrotation Xrotation Yrotation
                  JOINT lIndex1
                  {
                    OFFSET 4.1246 0.487 4.1451
                    CHANNELS 3 Zrotation Xrotation Yrotation
                    JOINT lIndex2
                    {
                      OFFSET 3.4052 -1.454 2.7682
                      CHANNELS 3 Zrotation Xrotation Yrotation
                      JOINT lIndex2_End
                      {
                        OFFSET 1.4531 -1.795 1.2713
                        CHANNELS 3 Zrotation Xrotation Yrotation
                        End Site
                        {
                          OFFSET 0.0145 -0.0179 0.0127
                        }
                      }
                    }
                  }
                  JOINT lMid1
                  {
                    OFFSET 5.6954 0.21 2.1184
                    CHANNELS 3 Zrotation Xrotation Yrotation
                    JOINT lMid2
                    {
                      OFFSET 3.9766 -1.54 2.3863
                      CHANNELS 3 Zrotation Xrotation Yrotation
                      JOINT lMid2_End
                      {
                        OFFSET 1.4042 -1.926 1.125
                        CHANNELS 3 Zrotation Xrotation Yrotation
                        End Site
                        {
                          OFFSET 0.014 -0.0193 0.0113
                        }
                      }
                    }
                  }
                }
                JOINT lCarpal2
                {
                  OFFSET 2.0956 0.66 -0.3894
                  CHANNELS 3 Zrotation Xrotation Yrotation
                  JOINT lRing1
                  {
                    OFFSET 5.0395 -0.09 2.4971
                    CHANNELS 3 Zrotation Xrotation Yrotation
                    JOINT lRing2
                    {
                      OFFSET 3.7921 -1.552 1.4806
                      CHANNELS 3 Zrotation Xrotation Yrotation
                      JOINT lRing2_End
                      {
                        OFFSET 1.4655 -1.808 0.9609
                        CHANNELS 3 Zrotation Xrotation Yrotation
                        End Site
                        {
                          OFFSET 0.0147 -0.0181 0.0096
                        }
                      }
                    }
                  }
                  JOINT lPinky1
                  {
                    OFFSET 4.9141 -1.269 0.3591
                    CHANNELS 3 Zrotation Xrotation Yrotation
                    JOINT lPinky2
                    {
                      OFFSET 3.1477 -1.685 0.8462
                      CHANNELS 3 Zrotation Xrotation Yrotation
                      JOINT lPinky2_End
                      {
                        OFFSET 0.8055 -1.585 0.7955
                        CHANNELS 3 Zrotation Xrotation Yrotation
                        End Site
                        {
                          OFFSET 0.0081 -0.0158 0.008
                        }
                      }
                    }
                  }
                }
              }
            }
          }
        }
        JOINT rCollar
        {
          OFFSET -1.7069 20.075 5.0056
          CHANNELS 3 Zrotation Xrotation Yrotation
          JOINT rShldr
          {
            OFFSET -13.6458 -0.047 -4.849
            CHANNELS 3 Zrotation Xrotation Yrotation
            JOINT rForeArm
            {
              OFFSET -28.3255 -0.9759 2.2888
              CHANNELS 3 Zrotation Xrotation Yrotation
              JOINT rHand
              {
                OFFSET -22.1583 -0.53 10.8316
                CHANNELS 3 Zrotation Xrotation Yrotation
                JOINT rThumb1
                {
                  OFFSET -0.786 0.112 2.5817
                  CHANNELS 3 Zrotation Xrotation Yrotation
                  JOINT rThumb2
                  {
                    OFFSET -0.3601 -0.878 4.2331
                    CHANNELS 3 Zrotation Xrotation Yrotation
                    JOINT rThumb2_End
                    {
                      OFFSET -1.8127 -1.216 2.2227
                      CHANNELS 3 Zrotation Xrotation Yrotation
                      End Site
                      {
                        OFFSET -0.0181 -0.0122 0.0222
                      }
                    }
                  }
                }
                JOINT rCarpal1
                {
                  OFFSET -0.9571 1.114 1.7695
                  CHANNELS 3 Zrotation Xrotation Yrotation
                  JOINT rIndex1
                  {
                    OFFSET -4.1246 0.487 4.1451
                    CHANNELS 3 Zrotation Xrotation Yrotation
                    JOINT rIndex2
                    {
                      OFFSET -3.4052 -1.454 2.7682
                      CHANNELS 3 Zrotation Xrotation Yrotation
                      JOINT rIndex2_End
                      {
                        OFFSET -1.4531 -1.795 1.2713
                        CHANNELS 3 Zrotation Xrotation Yrotation
                        End Site
                        {
                          OFFSET -0.0145 -0.018 0.0127
                        }
                      }
                    }
                  }
                  JOINT rMid1
                  {
                    OFFSET -5.6954 0.21 2.1184
                    CHANNELS 3 Zrotation Xrotation Yrotation
                    JOINT rMid2
                    {
                      OFFSET -3.9766 -1.54 2.3863
                      CHANNELS 3 Zrotation Xrotation Yrotation
                      JOINT rMid2_End
                      {
                        OFFSET -1.4042 -1.926 1.125
                        CHANNELS 3 Zrotation Xrotation Yrotation
                        End Site
                        {
                          OFFSET -0.014 -0.0193 0.0113
                        }
                      }
                    }
                  }
                }
                JOINT rCarpal2
                {
                  OFFSET -2.0956 0.66 -0.3894
                  CHANNELS 3 Zrotation Xrotation Yrotation
                  JOINT rRing1
                  {
                    OFFSET -5.0395 -0.09 2.4971
                    CHANNELS 3 Zrotation Xrotation Yrotation
                    JOINT rRing2
                    {
                      OFFSET -3.7921 -1.552 1.4806
                      CHANNELS 3 Zrotation Xrotation Yrotation
                      JOINT rRing2_End
                      {
                        OFFSET -1.4655 -1.808 0.9609
                        CHANNELS 3 Zrotation Xrotation Yrotation
                        End Site
                        {
                          OFFSET -0.0147 -0.0181 0.0096
                        }
                      }
                    }
                  }
                  JOINT rPinky1
                  {
                    OFFSET -4.9141 -1.269 0.3592
                    CHANNELS 3 Zrotation Xrotation Yrotation
                    JOINT rPinky2
                    {
                      OFFSET -3.1477 -1.685 0.8462
                      CHANNELS 3 Zrotation Xrotation Yrotation
                      JOINT rPinky2_End
                      {
                        OFFSET -0.8055 -1.585 0.7955
                        CHANNELS 3 Zrotation Xrotation Yrotation
                        End Site
                        {
                          OFFSET -0.0081 -0.0158 0.008
                        }
                      }
                    }
                  }
                }
              }
            }
          }
        }
      }
    }
  }
  JOINT lThigh
  {
    OFFSET 8.367 -8.2066 0.5982
    CHANNELS 3 Zrotation Xrotation Yrotation
    JOINT lShin
    {
      OFFSET 2.1923 -43.463 -0.4932
      CHANNELS 3 Zrotation Xrotation Yrotation
      JOINT lFoot
      {
        OFFSET 0.7333 -45.8593 -2.6451
        CHANNELS 3 Zrotation Xrotation Yrotation
        End Site
        {
          OFFSET 2.6618 -4.2699 12.3931
        }
      }
    }
  }
  JOINT rThigh
  {
    OFFSET -8.367 -8.2066 0.5982
    CHANNELS 3 Zrotation Xrotation Yrotation
    JOINT rShin
    {
      OFFSET -2.1923 -43.463 -0.4931
      CHANNELS 3 Zrotation Xrotation Yrotation
      JOINT rFoot
      {
        OFFSET -0.7333 -45.8593 -2.6451
        CHANNELS 3 Zrotation Xrotation Yrotation
        End Site
        {
          OFFSET -2.6618 -4.2699 12.3931
        }
      }
    }
  }
}
MOTION
Frames:	4
Frame Time:	0.0333333
1.06085 33.8732 6.65427 -7.96554e-015 7.70111 -180 -0.57436 14.262 -0.0407771 -1.19649 28.5236 0.0752873 -1.19649 28.5236 0.0752871 -7.1521e-005 -0.146027 4.52423e-007 20.315 -28.0597 12.7876 -10.8565 -10.5523 -16.3561 -23.5173 21.2387 -68.5302 10.745 -12.7752 18.9453 41.4434 -5.7119 -4.55491 1.67767e-006 -1.5982e-006 5.68531e-006 4.02375e-007 -1.73714e-006 6.18497e-006 2.01914e-006 -2.33659e-006 5.43764e-006 -1.59028e-015 0 3.18055e-015 1.67767e-006 -1.5982e-006 5.68531e-006 4.02375e-007 -1.73714e-006 6.18497e-006 2.01914e-006 -2.33659e-006 5.43764e-006 1.67767e-006 -1.5982e-006 5.68531e-006 4.02375e-007 -1.73714e-006 6.18497e-006 2.01914e-006 -2.33659e-006 5.43764e-006 -1.59028e-015 0 3.18055e-015 1.67767e-006 -1.5982e-006 5.68531e-006 4.02375e-007 -1.73714e-006 6.18497e-006 2.01914e-006 -2.33659e-006 5.43764e-006 1.67767e-006 -1.5982e-006 5.68531e-006 4.02375e-007 -1.73714e-006 6.18497e-006 2.01914e-006 -2.33659e-006 5.43764e-006 10.1179 -10.5948 15.1556 23.7311 21.9205 70.3135 -12.432 -12.2839 -19.89 -35.9103 -5.02569 4.97447 -3.18055e-015 2.8625e-014 6.36111e-015 -4.85034e-006 4.97562e-007 -3.20839e-006 9.54166e-015 -6.36111e-015 -6.36111e-015 0 3.18055e-015 -0 -1.27222e-014 2.8625e-014 6.36111e-015 -4.85034e-006 4.97562e-007 -3.20839e-006 3.18055e-015 -3.18055e-015 -0 -1.27222e-014 2.8625e-014 6.36111e-015 -4.85034e-006 4.97562e-007 -3.20839e-006 3.18055e-015 -3.18055e-015 -0 0 3.18055e-015 -0 -1.27222e-014 2.8625e-014 6.36111e-015 -4.85034e-006 4.97562e-007 -3.20839e-006 3.18055e-015 -3.18055e-015 -0 -1.27222e-014 2.8625e-014 6.36111e-015 -4.85034e-006 4.97562e-007 -3.20839e-006 3.18055e-015 -3.18055e-015 -0 104.952 -48.1319 120.856 163.215 71.4548 -160.462 4.83367 -7.17187 2.2381 -104.915 -48.0735 -120.865 -163.18 71.4503 160.427 -4.87828 -7.17866 -2.21138 
1.06086 34.3394 6.67981 -8.03118e-015 8.22675 -180 -0.577413 14.6009 -0.0336171 -1.20782 29.2014 0.0958631 -1.20782 29.2014 0.0958634 9.47657e-006 -0.146255 -1.51213e-007 20.1177 -27.8658 12.6384 -10.8772 -11.2613 -16.5062 -23.5173 21.2387 -68.5302 10.745 -12.7752 18.9453 41.7152 -5.92085 -4.70584 3.41408e-007 -7.38325e-007 -2.4782e-007 -2.61189e-006 -2.10396e-006 -5.53261e-007 7.06225e-031 -6.36111e-015 6.36111e-015 -6.36111e-015 -3.18055e-015 3.18055e-015 3.41408e-007 -7.38325e-007 -2.4782e-007 -2.61189e-006 -2.10396e-006 -5.53261e-007 3.53113e-031 -6.36111e-015 3.18055e-015 3.41408e-007 -7.38325e-007 -2.4782e-007 -2.61189e-006 -2.10396e-006 -5.53261e-007 3.53113e-031 -6.36111e-015 3.18055e-015 -6.36111e-015 -3.18055e-015 3.18055e-015 3.41408e-007 -7.38325e-007 -2.4782e-007 -2.61189e-006 -2.10396e-006 -5.53261e-007 3.53113e-031 -6.36111e-015 3.18055e-015 3.41408e-007 -7.38325e-007 -2.4782e-007 -2.61189e-006 -2.10396e-006 -5.53261e-007 3.53113e-031 -6.36111e-015 3.18055e-015 10.0797 -11.3072 15.2176 23.7311 21.9205 70.3135 -12.432 -12.2839 -19.89 -36.1906 -5.28425 5.06122 -1.27222e-014 0 -9.54166e-015 6.90865e-007 1.4701e-006 -4.77195e-007 -3.18055e-015 -3.18055e-015 9.54166e-015 -9.54166e-015 -6.36111e-015 -9.54166e-015 -9.54166e-015 3.18055e-015 9.54166e-015 6.90865e-007 1.4701e-006 -4.77195e-007 7.06225e-031 -1.27222e-014 3.18055e-015 -9.54166e-015 3.18055e-015 9.54166e-015 6.90865e-007 1.4701e-006 -4.77195e-007 7.06225e-031 -1.27222e-014 3.18055e-015 -9.54166e-015 -6.36111e-015 -9.54166e-015 -9.54166e-015 3.18055e-015 9.54166e-015 6.90865e-007 1.4701e-006 -4.77195e-007 7.06225e-031 -1.27222e-014 3.18055e-015 -9.54166e-015 3.18055e-015 9.54166e-015 6.90865e-007 1.4701e-006 -4.77195e-007 7.06225e-031 -1.27222e-014 3.18055e-015 103.42 -48.4468 119.158 162.908 71.8756 -160.215 4.67772 -7.39772 2.13912 -103.383 -48.3847 -119.169 -162.869 71.8707 160.177 -4.7253 -7.40491 -2.11066 
1.06086 34.805 6.70516 -8.09697e-015 8.75232 -180 -0.580529 14.9397 -0.0264074 -1.21957 29.8788 0.116771 -1.21957 29.8788 0.11677 -2.44284e-005 -0.145056 -5.36532e-007 19.9213 -27.6716 12.4901 -10.8999 -11.97 -16.6569 -23.5173 21.2387 -68.5302 10.745 -12.7753 18.9453 41.9866 -6.13049 -4.85579 3.53113e-031 6.36111e-015 -3.18055e-015 -1.59028e-015 0 -3.18055e-015 -1.02404e-006 2.21479e-006 7.43888e-007 0 0 -3.18055e-015 5.29669e-031 -3.18055e-015 9.54166e-015 3.18055e-015 3.18055e-015 -3.18055e-015 -1.02404e-006 2.21479e-006 7.43888e-007 5.29669e-031 -3.18055e-015 9.54166e-015 3.18055e-015 3.18055e-015 -3.18055e-015 -1.02404e-006 2.21479e-006 7.43888e-007 0 0 -3.18055e-015 5.29669e-031 -3.18055e-015 9.54166e-015 3.18055e-015 3.18055e-015 -3.18055e-015 -1.02404e-006 2.21479e-006 7.43888e-007 5.29669e-031 -3.18055e-015 9.54166e-015 3.18055e-015 3.18055e-015 -3.18055e-015 -1.02404e-006 2.21479e-006 7.43888e-007 10.0421 -12.0195 15.2793 23.7311 21.9205 70.3135 -12.432 -12.2839 -19.89 -36.4706 -5.5432 5.14672 -8.82781e-031 3.18055e-015 1.59028e-014 -4.32131e-006 -1.56001e-006 5.0615e-007 6.36111e-015 -3.18055e-015 -0 -3.18055e-015 0 6.36111e-015 -1.41245e-030 6.36111e-015 1.27222e-014 -4.32131e-006 -1.56001e-006 5.0615e-007 6.36111e-015 0 3.18055e-015 -1.41245e-030 6.36111e-015 1.27222e-014 -4.32131e-006 -1.56001e-006 5.0615e-007 6.36111e-015 0 3.18055e-015 -3.18055e-015 0 6.36111e-015 -1.41245e-030 6.36111e-015 1.27222e-014 -4.32131e-006 -1.56001e-006 5.0615e-007 6.36111e-015 0 3.18055e-015 -1.41245e-030 6.36111e-015 1.27222e-014 -4.32131e-006 -1.56001e-006 5.0615e-007 6.36111e-015 0 3.18055e-015 101.867 -48.732 117.439 162.586 72.2958 -159.954 4.52117 -7.6228 2.03973 -101.831 -48.666 -117.454 -162.545 72.2904 159.913 -4.57171 -7.63055 -2.00956 
1.06087 35.2698 6.73037 -8.16295e-015 9.27782 -180 -0.583712 15.2783 -0.0191462 -1.23174 30.556 0.138021 -1.23174 30.556 0.138021 4.13714e-006 -0.144138 -1.39259e-006 19.7257 -27.4767 12.3429 -10.9246 -12.6786 -16.8082 -23.5173 21.2387 -68.5302 10.745 -12.7753 18.9453 42.2575 -6.34083 -5.00481 -3.41286e-007 7.38199e-007 2.48105e-007 -3.41286e-007 7.38199e-007 2.48105e-007 3.41286e-007 -7.38199e-007 -2.48105e-007 -3.18055e-015 3.18055e-015 -6.36111e-015 -3.41286e-007 7.38199e-007 2.48105e-007 -3.41286e-007 7.38199e-007 2.48105e-007 3.41286e-007 -7.38199e-007 -2.48105e-007 -3.41286e-007 7.38199e-007 2.48105e-007 -3.41286e-007 7.38199e-007 2.48105e-007 3.41286e-007 -7.38199e-007 -2.48105e-007 -3.18055e-015 3.18055e-015 -6.36111e-015 -3.41286e-007 7.38199e-007 2.48105e-007 -3.41286e-007 7.38199e-007 2.48105e-007 3.41286e-007 -7.38199e-007 -2.48105e-007 -3.41286e-007 7.38199e-007 2.48105e-007 -3.41286e-007 7.38199e-007 2.48105e-007 3.41286e-007 -7.38199e-007 -2.48105e-007 10.0052 -12.7317 15.3407 23.7311 21.9205 70.3135 -12.432 -12.2839 -19.89 -36.7504 -5.80255 5.23099 -8.69141e-007 -3.17823e-006 -5.06884e-006 -3.18055e-015 -6.36111e-015 3.18055e-015 1.7933e-007 1.70769e-006 5.54511e-006 -3.18055e-015 0 3.18055e-015 -8.69141e-007 -3.17823e-006 -5.06884e-006 -3.18055e-015 -1.59028e-014 -3.18055e-015 1.7933e-007 1.70769e-006 5.54511e-006 -8.69141e-007 -3.17823e-006 -5.06884e-006 -3.18055e-015 -1.59028e-014 -3.18055e-015 1.7933e-007 1.70769e-006 5.54511e-006 -3.18055e-015 0 3.18055e-015 -8.69141e-007 -3.17823e-006 -5.06884e-006 -3.18055e-015 -1.59028e-014 -3.18055e-015 1.7933e-007 1.70769e-006 5.54511e-006 -8.69141e-007 -3.17823e-006 -5.06884e-006 -3.18055e-015 -1.59028e-014 -3.18055e-015 1.7933e-007 1.70769e-006 5.54511e-006 100.296 -48.9867 115.703 162.25 72.7151 -159.677 4.36401 -7.84729 1.93993 -100.26 -48.917 -115.721 -162.205 72.7093 159.633 -4.41755 -7.85541 -1.90803 
